<svg width="35" height="51" viewBox="0 0 35 51" fill="none" xmlns="http://www.w3.org/2000/svg">
<g clip-path="url(#clip0_167_1809)">
<g filter="url(#filter0_d_167_1809)">
<path d="M4.46114 24.3204L9.21895 1.85237C9.3397 1.28213 9.9206 0.935607 10.4797 1.10027L24.169 5.13159C24.7182 5.29332 25.0198 5.88225 24.83 6.42239L20.1368 19.7779C19.9463 20.3201 20.2509 20.9109 20.8031 21.0702L29.5398 23.5907C30.2547 23.7969 30.502 24.6838 29.997 25.2302L13.2155 43.3884C12.48 44.1842 11.181 43.4054 11.5364 42.3817L16.1898 28.9763C16.3872 28.4077 16.0412 27.7948 15.4523 27.6701L5.23229 25.5059C4.69198 25.3915 4.34673 24.8607 4.46114 24.3204Z" fill="#A60C0C"/>
</g>
</g>
<defs>
<filter id="filter0_d_167_1809" x="2.43945" y="0.0592041" width="29.8237" height="46.6567" filterUnits="userSpaceOnUse" color-interpolation-filters="sRGB">
<feFlood flood-opacity="0" result="BackgroundImageFix"/>
<feColorMatrix in="SourceAlpha" type="matrix" values="0 0 0 0 0 0 0 0 0 0 0 0 0 0 0 0 0 0 127 0" result="hardAlpha"/>
<feOffset dy="1"/>
<feGaussianBlur stdDeviation="1"/>
<feComposite in2="hardAlpha" operator="out"/>
<feColorMatrix type="matrix" values="0 0 0 0 0 0 0 0 0 0 0 0 0 0 0 0 0 0 0.2 0"/>
<feBlend mode="normal" in2="BackgroundImageFix" result="effect1_dropShadow_167_1809"/>
<feBlend mode="normal" in="SourceGraphic" in2="effect1_dropShadow_167_1809" result="shape"/>
</filter>
<clipPath id="clip0_167_1809">
<rect width="34.7584" height="49.4101" fill="white" transform="translate(0.120605 0.794922)"/>
</clipPath>
</defs>
</svg>
