<svg width="69" height="61" viewBox="0 0 69 61" fill="none" xmlns="http://www.w3.org/2000/svg">
<path fill-rule="evenodd" clip-rule="evenodd" d="M53.6748 60.9574C62.4342 54.8953 68.25 44.8762 68.25 33.5426C68.25 15.041 52.7515 0.042572 34.25 0.042572C15.7485 0.042572 0.75 15.041 0.75 33.5426C0.75 44.2877 5.80889 53.8513 13.6748 59.9815V58.0426C13.6748 56.938 14.5703 56.0426 15.6748 56.0426H18.75V51.8269C18.75 50.7223 19.6454 49.8269 20.75 49.8269H46.75C47.8546 49.8269 48.75 50.7223 48.75 51.8269V56.0426H51.6748C52.7794 56.0426 53.6748 56.938 53.6748 58.0426V60.9574ZM30.5691 41.4484C29.7541 40.2366 30.0758 38.5936 31.2876 37.7786L42.0798 30.5206C43.2916 29.7056 44.9347 30.0273 45.7496 31.2391C46.5646 32.451 46.2429 34.094 45.0311 34.909L34.2389 42.167C33.0271 42.9819 31.3841 42.6602 30.5691 41.4484ZM18.271 17.7388C17.0592 18.5537 16.7375 20.1968 17.5524 21.4086C18.3674 22.6204 20.0105 22.9421 21.2223 22.1272L32.3183 14.6648C33.5302 13.8498 33.8519 12.2068 33.0369 10.9949C32.2219 9.78312 30.5789 9.46142 29.3671 10.2764L18.271 17.7388ZM55.2696 7.48702L59.4297 11.2092L39.8749 24.3152L42.2915 27.8667L29.3759 36.655L21.1958 24.6332L34.1114 15.8449L36.6421 19.5642L55.2696 7.48702Z" fill="#A60C0C"/>
</svg>
