<svg width="22" height="22" viewBox="0 0 22 22" fill="none" xmlns="http://www.w3.org/2000/svg">
<g clip-path="url(#clip0_6_99)">
<path d="M16.5 7.29167H15.5834V5.45833C15.5834 2.92833 13.53 0.875 11 0.875C8.47002 0.875 6.41669 2.92833 6.41669 5.45833V7.29167H5.50002C4.49169 7.29167 3.66669 8.11667 3.66669 9.125V18.2917C3.66669 19.3 4.49169 20.125 5.50002 20.125H16.5C17.5084 20.125 18.3334 19.3 18.3334 18.2917V9.125C18.3334 8.11667 17.5084 7.29167 16.5 7.29167ZM11 15.5417C9.99169 15.5417 9.16669 14.7167 9.16669 13.7083C9.16669 12.7 9.99169 11.875 11 11.875C12.0084 11.875 12.8334 12.7 12.8334 13.7083C12.8334 14.7167 12.0084 15.5417 11 15.5417ZM13.8417 7.29167H8.15835V5.45833C8.15835 3.89083 9.43252 2.61667 11 2.61667C12.5675 2.61667 13.8417 3.89083 13.8417 5.45833V7.29167Z" fill="#A60C0C"/>
</g>
<defs>
<clipPath id="clip0_6_99">
<rect width="22" height="22" fill="white"/>
</clipPath>
</defs>
</svg>
